<svg width="1000" height="501" viewBox="0 0 1000 501" fill="none" xmlns="http://www.w3.org/2000/svg">
<rect x="230.803" y="500.045" width="5.01147" height="105.061" rx="2.5" transform="rotate(-90 230.803 500.045)" fill="#00FF00" stroke="black"/>
<rect x="200.5" y="7.05176" width="6.00637" height="69" rx="2.5" transform="rotate(-90 200.5 7.05176)" fill="#00FF00" stroke="black"/>
<rect x="286.5" y="7.05176" width="6.00637" height="69" rx="2.5" transform="rotate(-90 286.5 7.05176)" fill="#00FF00" stroke="black"/>
<rect x="135.5" y="7.05176" width="6.00637" height="34" rx="2.5" transform="rotate(-90 135.5 7.05176)" fill="#00FF00" stroke="black"/>
<rect x="0.500022" y="495.541" width="489" height="999" rx="49.5" transform="rotate(-90 0.500022 495.541)" fill="#00FF00" stroke="black"/>
<rect x="15.6515" y="480.556" width="459.031" height="968.697" rx="39.5" transform="rotate(-90 15.6515 480.556)" stroke="black"/>
<line x1="89.5" y1="480" x2="89.5" y2="496" stroke="black"/>
<line x1="94.5" y1="480" x2="94.5" y2="496" stroke="black"/>
<line x1="16" y1="400.5" x2="2.67574e-08" y2="400.5" stroke="black"/>
<line x1="16" y1="404.5" x2="2.67574e-08" y2="404.5" stroke="black"/>
<line x1="1000" y1="109.5" x2="984" y2="109.5" stroke="black"/>
<line x1="1000" y1="113.5" x2="984" y2="113.5" stroke="black"/>
<line x1="906.5" y1="480" x2="906.5" y2="496" stroke="black"/>
<line x1="911.5" y1="480" x2="911.5" y2="496" stroke="black"/>
<line x1="89.5" y1="6" x2="89.5" y2="22" stroke="black"/>
<line x1="94.5" y1="6" x2="94.5" y2="22" stroke="black"/>
<line x1="906.5" y1="6" x2="906.5" y2="22" stroke="black"/>
<line x1="911.5" y1="6" x2="911.5" y2="22" stroke="black"/>
<rect x="30.803" y="465.511" width="170.171" height="188.394" rx="29.5" transform="rotate(-90 30.803 465.511)" fill="#F1EEEE" stroke="black"/>
<path d="M59.0909 322.367C68.0238 322.367 75.2576 329.542 75.2576 338.383C75.2576 347.225 68.0238 354.4 59.0909 354.4C50.158 354.4 42.9243 347.225 42.9243 338.383C42.9243 329.542 50.158 322.367 59.0909 322.367Z" fill="white" stroke="black"/>
<path d="M188.636 331.376C192.13 331.376 194.955 334.181 194.955 337.633C194.955 341.084 192.13 343.889 188.636 343.889C185.143 343.889 182.318 341.084 182.318 337.633C182.318 334.181 185.143 331.376 188.636 331.376Z" fill="white" stroke="black"/>
<path d="M77.2727 382.427C97.9208 382.427 114.652 399.013 114.652 419.464C114.652 439.915 97.9208 456.502 77.2727 456.502C56.6247 456.502 39.894 439.915 39.894 419.464C39.894 399.013 56.6247 382.427 77.2727 382.427Z" stroke="black"/>
<path d="M124.242 304.349C144.89 304.349 161.621 320.935 161.621 341.386C161.621 361.837 144.89 378.424 124.242 378.424C103.594 378.424 86.8636 361.837 86.8636 341.386C86.8636 320.935 103.594 304.349 124.242 304.349Z" stroke="black"/>
<path d="M172.727 382.427C193.375 382.427 210.106 399.013 210.106 419.464C210.106 439.915 193.375 456.502 172.727 456.502C152.079 456.502 135.349 439.915 135.349 419.464C135.349 399.013 152.079 382.427 172.727 382.427Z" stroke="black"/>
<path d="M77.2727 388.433C94.5736 388.433 108.591 402.33 108.591 419.464C108.591 436.598 94.5736 450.496 77.2727 450.496C59.9719 450.496 45.9546 436.598 45.9546 419.464C45.9546 402.33 59.9719 388.433 77.2727 388.433Z" fill="#F1EEEE" stroke="black"/>
<path d="M77.2727 404.949C85.3688 404.949 91.9243 411.452 91.9243 419.464C91.9243 427.476 85.3688 433.979 77.2727 433.979C69.1767 433.979 62.6212 427.476 62.6212 419.464C62.6212 411.452 69.1767 404.949 77.2727 404.949Z" fill="#F1EEEE" stroke="black"/>
<path d="M77.2727 407.952C83.6952 407.952 88.894 413.111 88.894 419.464C88.894 425.818 83.6952 430.976 77.2727 430.976C70.8502 430.976 65.6515 425.818 65.6515 419.464C65.6515 413.111 70.8502 407.952 77.2727 407.952Z" fill="white" stroke="black"/>
<path d="M124.242 310.355C141.543 310.355 155.561 324.252 155.561 341.386C155.561 358.52 141.543 372.418 124.242 372.418C106.942 372.418 92.9243 358.52 92.9243 341.386C92.9243 324.252 106.942 310.355 124.242 310.355Z" fill="#F1EEEE" stroke="black"/>
<path d="M124.242 317.862C137.359 317.862 147.985 328.398 147.985 341.386C147.985 354.374 137.359 364.91 124.242 364.91C111.126 364.91 100.5 354.374 100.5 341.386C100.5 328.398 111.126 317.862 124.242 317.862Z" fill="#F1EEEE" stroke="black"/>
<path d="M124.242 329.874C130.665 329.874 135.864 335.033 135.864 341.386C135.864 347.74 130.665 352.898 124.242 352.898C117.82 352.898 112.621 347.74 112.621 341.386C112.621 335.033 117.82 329.874 124.242 329.874Z" fill="white" stroke="black"/>
<path d="M172.727 388.433C190.028 388.433 204.045 402.33 204.045 419.464C204.045 436.598 190.028 450.496 172.727 450.496C155.426 450.496 141.409 436.598 141.409 419.464C141.409 402.33 155.426 388.433 172.727 388.433Z" fill="#F1EEEE" stroke="black"/>
<path d="M172.727 400.445C183.334 400.445 191.924 408.964 191.924 419.464C191.924 429.964 183.334 438.484 172.727 438.484C162.121 438.484 153.53 429.964 153.53 419.464C153.53 408.964 162.121 400.445 172.727 400.445Z" fill="#F1EEEE" stroke="black"/>
<path d="M172.727 407.952C179.15 407.952 184.349 413.111 184.349 419.464C184.349 425.818 179.15 430.976 172.727 430.976C166.305 430.976 161.106 425.818 161.106 419.464C161.106 413.111 166.305 407.952 172.727 407.952Z" fill="white" stroke="black"/>
<path d="M534.556 219.124L534.561 219.129L534.566 219.134C537.31 222.116 538.689 225.277 538.769 228.639C538.768 231.066 538.075 234.032 536.635 237.53L536.635 237.531C535.169 241.12 534.433 244.443 534.434 247.503C534.434 250.704 535.168 254.119 536.634 257.75L536.634 257.75C538.08 261.319 538.813 264.147 538.885 266.272L538.885 266.276C539.021 269.463 537.623 272.691 534.567 275.974L534.562 275.98L534.557 275.986C532.733 278.075 529.578 280.718 525.059 283.912L525.058 283.913C520.268 287.314 514.707 290.116 508.355 292.314C501.499 294.666 494.87 295.841 488.461 295.841C481.122 295.841 474.821 294.257 469.555 291.106L469.551 291.104C465.319 288.626 461.986 285.334 459.538 281.214C457.092 277.096 455.846 272.65 455.765 267.857C455.766 265.276 456.569 261.841 458.185 257.511C459.002 255.335 459.621 253.541 460.037 252.133C460.447 250.741 460.674 249.677 460.674 248.986C460.674 248.694 460.601 248.279 460.479 247.775C460.355 247.26 460.17 246.611 459.927 245.834C459.441 244.279 458.715 242.184 457.75 239.558C455.976 234.631 455.259 230.52 455.542 227.188L455.543 227.186C456.267 218.215 459.732 211.479 465.928 206.935C471.036 215.082 478.161 219.146 487.243 219.064L487.244 219.064C494.433 218.987 500.437 216.375 505.196 211.245C507.29 209.04 508.934 206.588 510.132 203.873C511.746 204.438 513.296 205.032 514.788 205.659C518.622 207.318 522.148 209.279 525.389 211.551L525.646 211.183L525.389 211.551C529.841 214.671 532.885 217.2 534.556 219.124ZM437.522 243.014L437.519 243.012C435.223 241.013 433.305 238.464 431.77 235.357C430.343 232.432 429.527 229.676 429.319 227.092C429.88 227.045 430.441 227.025 431.001 227.025L431.001 227.025C436.399 227.025 441.452 228.992 446.155 232.951C451.639 237.639 454.787 243.222 454.456 249.221C453.936 249.272 453.394 249.301 452.831 249.301C447.661 249.301 442.092 247.048 437.522 243.014Z" fill="white" stroke="black"/>
</svg>
